<?xml version="1.0" encoding="iso-8859-1"?>
<!-- Generator: Adobe Illustrator 19.0.0, SVG Export Plug-In . SVG Version: 6.00 Build 0)  -->
<svg version="1.1" id="Layer_1" xmlns="http://www.w3.org/2000/svg" xmlns:xlink="http://www.w3.org/1999/xlink" x="0px" y="0px"
	 viewBox="0 0 512.001 512.001" style="enable-background:new 0 0 512.001 512.001;" xml:space="preserve">
<g>
	<g>
		<path d="M400.7,138.918H186.539l206.693-93.089c7.343-3.308,10.613-11.939,7.308-19.283c-3.307-7.341-11.937-10.612-19.283-7.308
			l-265.733,119.68H51.869c-8.052,0-14.581,6.529-14.581,14.581c0,8.052,6.528,14.581,14.581,14.581H56.8
			c-2.474,3.985-2.983,9.088-0.913,13.689c2.432,5.399,7.744,8.597,13.304,8.597c2,0,4.036-0.416,5.98-1.29l46.618-20.995H400.7
			c8.052,0,14.581-6.529,14.581-14.581C415.281,145.447,408.752,138.918,400.7,138.918z"/>
	</g>
</g>
<g>
	<g>
		<path d="M454.753,143.19c-0.671-0.671-1.414-1.283-2.216-1.808c-0.787-0.523-1.633-0.977-2.522-1.341
			c-0.875-0.365-1.792-0.656-2.727-0.831c-4.739-0.961-9.768,0.598-13.152,3.981c-2.725,2.711-4.271,6.474-4.271,10.307
			c0,3.835,1.546,7.597,4.272,10.307c2.712,2.712,6.472,4.274,10.309,4.274c0.946,0,1.91-0.089,2.842-0.277
			c0.935-0.19,1.853-0.467,2.727-0.831c0.889-0.365,1.735-0.817,2.522-1.341c0.802-0.539,1.546-1.152,2.216-1.823
			c2.712-2.711,4.274-6.472,4.274-10.307S457.466,145.902,454.753,143.19z"/>
	</g>
</g>
<g>
	<g>
		<path d="M441.426,11.726c-0.188-0.932-0.467-1.852-0.831-2.727c-0.365-0.888-0.817-1.734-1.341-2.521
			c-0.539-0.802-1.137-1.547-1.808-2.218c-3.397-3.381-8.426-4.943-13.165-3.979c-0.935,0.19-1.853,0.465-2.727,0.83
			c-0.876,0.365-1.735,0.818-2.522,1.341c-0.802,0.525-1.546,1.137-2.216,1.808s-1.283,1.416-1.808,2.218
			c-0.525,0.787-0.977,1.633-1.341,2.521c-0.365,0.876-0.642,1.793-0.831,2.727c-0.19,0.933-0.292,1.896-0.292,2.843
			c0,3.835,1.56,7.597,4.274,10.309c0.669,0.672,1.413,1.285,2.213,1.824c0.787,0.523,1.648,0.977,2.522,1.341
			c0.875,0.365,1.792,0.64,2.727,0.83c0.946,0.19,1.896,0.277,2.858,0.277c3.835,0,7.581-1.56,10.307-4.272
			c2.712-2.712,4.258-6.474,4.258-10.309C441.702,13.621,441.614,12.657,441.426,11.726z"/>
	</g>
</g>
<g>
	<g>
		<path d="M444.233,217.166H67.771c-21.319,0-38.664,17.345-38.664,38.664v3.107c0,15.344,8.985,28.628,21.969,34.869v17.978
			c0,74.917,54.272,137.394,125.564,150.188c-1.169,3.672-1.807,7.578-1.807,11.633c0,21.173,17.224,38.396,38.397,38.396h85.54
			c21.173,0,38.397-17.224,38.397-38.396c0-4.053-0.636-7.961-1.807-11.633c71.292-12.792,125.564-75.271,125.564-150.188v-17.978
			c12.984-6.241,21.969-19.525,21.969-34.869v-3.107C482.896,234.512,465.552,217.166,444.233,217.166z M298.772,482.839h-85.54
			c-5.092,0-9.236-4.142-9.236-9.234c0-5.092,4.144-9.236,9.236-9.236h85.54c5.092,0,9.236,4.144,9.236,9.236
			C308.008,478.697,303.864,482.839,298.772,482.839z M431.768,311.785h-0.003c0,68.055-55.368,123.422-123.422,123.422h-9.569
			h-85.54h-9.569c-68.055,0-123.422-55.368-123.422-123.422V297.6h351.525V311.785z M453.735,258.938
			c0,5.239-4.263,9.502-9.502,9.502H67.771c-5.239,0-9.502-4.263-9.502-9.502v-3.107c0-5.239,4.263-9.502,9.502-9.502h376.462
			c5.239,0,9.502,4.263,9.502,9.502V258.938z"/>
	</g>
</g>
<g>
</g>
<g>
</g>
<g>
</g>
<g>
</g>
<g>
</g>
<g>
</g>
<g>
</g>
<g>
</g>
<g>
</g>
<g>
</g>
<g>
</g>
<g>
</g>
<g>
</g>
<g>
</g>
<g>
</g>
</svg>
